<svg width="52.000000" height="52.000000" viewBox="0 0 52 52" fill="none" xmlns="http://www.w3.org/2000/svg" xmlns:xlink="http://www.w3.org/1999/xlink">
	<desc>
			Created with Pixso.
	</desc>
	<defs>
		<clipPath id="clip129_6073">
			<rect id="Icon" width="24.000000" height="24.000000" transform="translate(14.000000 14.000000)" fill="white" fill-opacity="0"/>
		</clipPath>
		<clipPath id="clip129_6072">
			<rect id="Button" rx="26.000000" width="52.000000" height="52.000000" fill="white" fill-opacity="0"/>
		</clipPath>
	</defs>
	<rect id="Button" rx="26.000000" width="52.000000" height="52.000000" fill="#141414" fill-opacity="1.000000"/>
	<g clip-path="url(#clip129_6072)">
		<rect id="Icon" width="24.000000" height="24.000000" transform="translate(14.000000 14.000000)" fill="#FFFFFF" fill-opacity="0"/>
		<g clip-path="url(#clip129_6073)">
			<path id="Vector" d="M34.46 16L17.52 16C17.33 15.99 17.14 16.03 16.97 16.1C16.79 16.17 16.63 16.27 16.49 16.41C16.35 16.54 16.25 16.7 16.17 16.87C16.1 17.05 16.06 17.23 16.05 17.43L16.05 34.57C16.06 34.76 16.1 34.94 16.17 35.12C16.25 35.29 16.35 35.45 16.49 35.58C16.63 35.72 16.79 35.82 16.97 35.89C17.14 35.96 17.33 36 17.52 36L34.46 36C34.66 36 34.84 35.96 35.02 35.89C35.2 35.82 35.36 35.72 35.5 35.58C35.63 35.45 35.74 35.29 35.82 35.12C35.89 34.94 35.93 34.76 35.93 34.57L35.93 17.43C35.93 17.23 35.89 17.05 35.82 16.87C35.74 16.7 35.63 16.54 35.5 16.41C35.36 16.27 35.2 16.17 35.02 16.1C34.84 16.03 34.66 15.99 34.46 16ZM22.08 32.74L19.08 32.74L19.08 23.74L22.08 23.74L22.08 32.74ZM20.58 22.48C20.17 22.48 19.77 22.31 19.48 22.02C19.19 21.73 19.02 21.33 19.02 20.92C19.02 20.5 19.19 20.1 19.48 19.81C19.77 19.52 20.17 19.36 20.58 19.36C20.8 19.33 21.03 19.35 21.24 19.42C21.45 19.49 21.64 19.6 21.81 19.74C21.97 19.89 22.1 20.07 22.19 20.27C22.28 20.48 22.33 20.69 22.33 20.92C22.33 21.14 22.28 21.35 22.19 21.56C22.1 21.76 21.97 21.94 21.81 22.09C21.64 22.23 21.45 22.34 21.24 22.41C21.03 22.48 20.8 22.5 20.58 22.48ZM32.91 32.74L29.91 32.74L29.91 27.91C29.91 26.7 29.48 25.91 28.38 25.91C28.05 25.91 27.72 26.01 27.44 26.21C27.17 26.4 26.96 26.68 26.84 27C26.76 27.23 26.73 27.48 26.75 27.73L26.75 32.73L23.75 32.73C23.75 32.73 23.75 24.55 23.75 23.73L26.75 23.73L26.75 25C27.01 24.52 27.41 24.13 27.89 23.87C28.37 23.6 28.91 23.48 29.45 23.5C31.45 23.5 32.91 24.79 32.91 27.56L32.91 32.74Z" fill="#FFFFFF" fill-opacity="1.000000" fill-rule="nonzero"/>
		</g>
	</g>
</svg>
