<svg width="52.000000" height="52.000000" viewBox="0 0 52 52" fill="none" xmlns="http://www.w3.org/2000/svg" xmlns:xlink="http://www.w3.org/1999/xlink">
	<desc>
			Created with Pixso.
	</desc>
	<defs>
		<clipPath id="clip129_6076">
			<rect id="Icon" width="24.000000" height="24.000000" transform="translate(14.000000 14.000000)" fill="white" fill-opacity="0"/>
		</clipPath>
		<clipPath id="clip129_6075">
			<rect id="Button" rx="26.000000" width="52.000000" height="52.000000" fill="white" fill-opacity="0"/>
		</clipPath>
	</defs>
	<rect id="Button" rx="26.000000" width="52.000000" height="52.000000" fill="#141414" fill-opacity="1.000000"/>
	<g clip-path="url(#clip129_6075)">
		<rect id="Icon" width="24.000000" height="24.000000" transform="translate(14.000000 14.000000)" fill="#FFFFFF" fill-opacity="0"/>
		<g clip-path="url(#clip129_6076)">
			<path id="Vector" d="M36 19.8C35.25 20.12 34.45 20.34 33.64 20.44C34.5 19.92 35.14 19.12 35.44 18.17C34.64 18.65 33.76 18.98 32.83 19.17C32.22 18.5 31.4 18.05 30.51 17.9C29.61 17.75 28.69 17.9 27.89 18.33C27.09 18.76 26.45 19.44 26.08 20.27C25.71 21.09 25.62 22.02 25.83 22.91C24.21 22.82 22.61 22.4 21.16 21.66C19.7 20.92 18.41 19.88 17.39 18.62C17.02 19.25 16.83 19.96 16.83 20.69C16.83 21.36 17 22.02 17.32 22.62C17.64 23.21 18.09 23.72 18.66 24.1C18 24.08 17.37 23.9 16.8 23.59L16.8 23.64C16.8 24.58 17.13 25.49 17.73 26.22C18.33 26.95 19.17 27.45 20.1 27.64C19.74 27.74 19.37 27.8 19 27.81C18.74 27.8 18.48 27.78 18.23 27.74C18.49 28.55 19 29.26 19.69 29.77C20.37 30.28 21.2 30.56 22.05 30.58C20.61 31.71 18.83 32.33 17 32.34C16.66 32.34 16.33 32.32 16 32.28C17.87 33.49 20.05 34.13 22.28 34.13C23.82 34.14 25.35 33.85 26.78 33.27C28.21 32.69 29.5 31.83 30.59 30.74C31.68 29.65 32.54 28.36 33.13 26.94C33.71 25.51 34.01 23.99 34 22.45C34 22.28 34 22.1 34 21.92C34.78 21.33 35.46 20.61 36 19.8Z" fill="#FFFFFF" fill-opacity="1.000000" fill-rule="nonzero"/>
		</g>
	</g>
</svg>
