<svg width="52.000000" height="52.000000" viewBox="0 0 52 52" fill="none" xmlns="http://www.w3.org/2000/svg" xmlns:xlink="http://www.w3.org/1999/xlink">
	<desc>
			Created with Pixso.
	</desc>
	<defs>
		<clipPath id="clip89_4034">
			<rect id="Icon" width="24.000000" height="24.000000" transform="translate(14.000000 14.000000)" fill="white" fill-opacity="0"/>
		</clipPath>
		<clipPath id="clip89_4033">
			<rect id="Button" rx="26.000000" width="52.000000" height="52.000000" fill="white" fill-opacity="0"/>
		</clipPath>
	</defs>
	<rect id="Button" rx="26.000000" width="52.000000" height="52.000000" fill="#141414" fill-opacity="1.000000"/>
	<g clip-path="url(#clip89_4033)">
		<rect id="Icon" width="24.000000" height="24.000000" transform="translate(14.000000 14.000000)" fill="#FFFFFF" fill-opacity="0"/>
		<g clip-path="url(#clip89_4034)">
			<path id="Vector" d="M37 23.71C37.04 22.27 36.73 20.85 36.08 19.58C35.65 19.05 35.04 18.7 34.37 18.58C31.58 18.32 28.79 18.22 26 18.27C23.21 18.22 20.43 18.32 17.66 18.57C17.11 18.66 16.6 18.92 16.2 19.31C15.29 20.13 15.2 21.56 15.1 22.76C14.95 24.91 14.95 27.08 15.1 29.24C15.12 29.91 15.22 30.58 15.39 31.24C15.52 31.74 15.76 32.21 16.1 32.6C16.51 33 17.03 33.27 17.6 33.37C19.75 33.64 21.92 33.75 24.1 33.71C27.6 33.75 30.66 33.71 34.29 33.42C34.87 33.33 35.41 33.05 35.83 32.64C36.1 32.36 36.31 32.02 36.43 31.64C36.79 30.55 36.97 29.4 36.96 28.25C37 27.68 37 24.31 37 23.71ZM23.74 28.85L23.74 22.65L29.66 25.77C28 26.68 25.81 27.73 23.74 28.85Z" fill="#FFFFFF" fill-opacity="1.000000" fill-rule="nonzero"/>
		</g>
	</g>
</svg>
