<svg width="52.000000" height="52.000000" viewBox="0 0 52 52" fill="none" xmlns="http://www.w3.org/2000/svg" xmlns:xlink="http://www.w3.org/1999/xlink">
	<desc>
			Created with Pixso.
	</desc>
	<defs>
		<clipPath id="clip139_7780">
			<rect id="Icon" width="24.000000" height="24.000000" transform="translate(14.000000 14.000000)" fill="white" fill-opacity="0"/>
		</clipPath>
		<clipPath id="clip89_4025">
			<rect id="Button" rx="26.000000" width="52.000000" height="52.000000" fill="white" fill-opacity="0"/>
		</clipPath>
	</defs>
	<rect id="Button" rx="26.000000" width="52.000000" height="52.000000" fill="#141414" fill-opacity="1.000000"/>
	<g clip-path="url(#clip89_4025)">
		<rect id="Icon" width="24.000000" height="24.000000" transform="translate(14.000000 14.000000)" fill="#FFFFFF" fill-opacity="0"/>
		<g clip-path="url(#clip139_7780)">
			<path id="Icon" d="M29.74 17.98L32 17.98L32 14.16C30.9 14.05 29.81 13.99 28.71 14C25.44 14 23.21 15.99 23.21 19.64L23.21 22.78L19.53 22.78L19.53 27.05L23.21 27.05L23.21 38L27.63 38L27.63 27.05L31.3 27.05L31.85 22.78L27.63 22.78L27.63 20.06C27.63 18.79 27.96 17.98 29.74 17.98Z" fill="#FFFFFF" fill-opacity="1.000000" fill-rule="nonzero"/>
		</g>
	</g>
</svg>
