<svg width="24.000000" height="24.000000" viewBox="0 0 24 24" fill="none" xmlns="http://www.w3.org/2000/svg" xmlns:xlink="http://www.w3.org/1999/xlink">
	<desc>
			Created with Pixso.
	</desc>
	<defs>
		<clipPath id="clip172_5609">
			<rect id="Icon" width="24.000000" height="24.000000" fill="white" fill-opacity="0"/>
		</clipPath>
	</defs>
	<rect id="Icon" width="24.000000" height="24.000000" fill="#000000" fill-opacity="0"/>
	<g clip-path="url(#clip172_5609)">
		<path id="Fill-1" d="M21.42 2.57C20.92 2.06 20.18 1.87 19.49 2.07L3.4 6.72C2.67 6.92 2.16 7.5 2.02 8.23C1.88 8.98 2.37 9.93 3.02 10.32L8.05 13.4C8.57 13.71 9.23 13.63 9.66 13.2L15.42 7.44C15.71 7.14 16.19 7.14 16.48 7.44C16.77 7.73 16.77 8.2 16.48 8.5L10.71 14.26C10.28 14.69 10.2 15.36 10.52 15.87L13.59 20.92C13.95 21.52 14.57 21.86 15.25 21.86C15.33 21.86 15.42 21.86 15.5 21.85C16.28 21.75 16.9 21.22 17.13 20.47L21.9 4.5C22.11 3.82 21.92 3.08 21.42 2.57Z" fill="#FFFFFF" fill-opacity="1.000000" fill-rule="nonzero"/>
		<g opacity="0.400000">
			<path id="Combined-Shape" d="M9.45 19.14C9.74 19.43 9.74 19.91 9.45 20.2L8.08 21.56C7.94 21.71 7.75 21.78 7.55 21.78C7.36 21.78 7.17 21.71 7.02 21.56C6.73 21.27 6.73 20.8 7.02 20.5L8.39 19.14C8.68 18.85 9.16 18.85 9.45 19.14ZM8.66 15.35C8.96 15.64 8.96 16.12 8.66 16.41L7.3 17.78C7.15 17.92 6.96 18 6.77 18C6.58 18 6.38 17.92 6.24 17.78C5.94 17.48 5.94 17.01 6.24 16.72L7.6 15.35C7.9 15.06 8.37 15.06 8.66 15.35ZM4.9 14.16C5.19 14.45 5.19 14.92 4.9 15.22L3.54 16.58C3.39 16.73 3.2 16.8 3.01 16.8C2.82 16.8 2.62 16.73 2.48 16.58C2.18 16.29 2.18 15.82 2.48 15.52L3.84 14.16C4.14 13.86 4.61 13.86 4.9 14.16Z" fill="#FFFFFF" fill-opacity="1.000000" fill-rule="nonzero"/>
		</g>
	</g>
</svg>
